<svg xmlns="http://www.w3.org/2000/svg" viewBox="0 0 380 73"><defs><style>.cls-1,.cls-3{fill:#83A2D4;}.cls-2{fill:none;stroke-width:2px;}.cls-2,.cls-3{stroke:#83A2D4;stroke-miterlimit:10;}.cls-3{stroke-width:3px;}</style></defs><title>Circles-1</title><g id="Layer_2" data-name="Layer 2"><g id="Layer_1-2" data-name="Layer 1"><circle class="cls-1" cx="20" cy="38" r="19.5"/><path class="cls-1" d="M20,19A19,19,0,1,1,1,38,19,19,0,0,1,20,19m0-1A20,20,0,1,0,40,38,20,20,0,0,0,20,18Z"/><line class="cls-2" x1="20" y1="38" x2="60.5" y2="3.5"/><circle class="cls-3" cx="61" cy="3" r="1.5"/><circle class="cls-1" cx="190" cy="38" r="19.5"/><path class="cls-1" d="M190,19a19,19,0,1,1-19,19,19,19,0,0,1,19-19m0-1a20,20,0,1,0,20,20,20,20,0,0,0-20-20Z"/><circle class="cls-1" cx="360" cy="38" r="19.5"/><path class="cls-1" d="M360,19a19,19,0,1,1-19,19,19,19,0,0,1,19-19m0-1a20,20,0,1,0,20,20,20,20,0,0,0-20-20Z"/><line class="cls-2" x1="125" y1="3" x2="190" y2="38"/><line class="cls-2" x1="195" y1="40" x2="245" y2="67"/><line class="cls-2" x1="315" y1="70" x2="360" y2="38"/><circle class="cls-3" cx="245" cy="67" r="1.5"/><circle class="cls-3" cx="125" cy="3" r="1.5"/><circle class="cls-3" cx="315" cy="70" r="1.5"/></g></g></svg>