<svg xmlns="http://www.w3.org/2000/svg" viewBox="0 0 380 70.49"><defs><style>.cls-1,.cls-3{fill:#A198CA;}.cls-2{fill:none;stroke-width:2px;}.cls-2,.cls-3{stroke:#A198CA;stroke-miterlimit:10;}.cls-3{stroke-width:3px;}</style></defs><title>Circles-2</title><g id="Layer_2" data-name="Layer 2"><g id="Layer_1-2" data-name="Layer 1"><circle class="cls-1" cx="20" cy="39.49" r="19.5"/><path class="cls-1" d="M20,20.49a19,19,0,1,1-19,19,19,19,0,0,1,19-19m0-1a20,20,0,1,0,20,20,20,20,0,0,0-20-20Z"/><circle class="cls-1" cx="187" cy="39.49" r="19.5"/><path class="cls-1" d="M187,20.49a19,19,0,1,1-19,19,19,19,0,0,1,19-19m0-1a20,20,0,1,0,20,20,20,20,0,0,0-20-20Z"/><circle class="cls-1" cx="360" cy="39.49" r="19.5"/><path class="cls-1" d="M360,20.49a19,19,0,1,1-19,19,19,19,0,0,1,19-19m0-1a20,20,0,1,0,20,20,20,20,0,0,0-20-20Z"/><line class="cls-2" x1="20" y1="39.49" x2="64.42" y2="67.31"/><circle class="cls-3" cx="65" cy="67.49" r="1.5"/><line class="cls-2" x1="186.58" y1="39.66" x2="242" y2="2.49"/><line class="cls-2" x1="312" y1="22.49" x2="360" y2="39.49"/><ellipse class="cls-3" cx="241.81" cy="2.73" rx="1.21" ry="1.39" transform="translate(166.85 232.64) rotate(-72.59)"/><circle class="cls-3" cx="312" cy="22.49" r="1.5"/></g></g></svg>