<svg xmlns="http://www.w3.org/2000/svg" viewBox="0 0 377 85"><defs><style>.cls-1{fill:#EF9C9D;}.cls-2{fill:none;stroke:#EF9C9D;stroke-miterlimit:10;stroke-width:2px;}</style></defs><title>Circles-3</title><g id="Layer_2" data-name="Layer 2"><g id="Layer_1-2" data-name="Layer 1"><circle class="cls-1" cx="20" cy="44" r="19.5"/><path class="cls-1" d="M20,25A19,19,0,1,1,1,44,19,19,0,0,1,20,25m0-1A20,20,0,1,0,40,44,20,20,0,0,0,20,24Z"/><circle class="cls-1" cx="187" cy="44" r="19.5"/><path class="cls-1" d="M187,25a19,19,0,1,1-19,19,19,19,0,0,1,19-19m0-1a20,20,0,1,0,20,20,20,20,0,0,0-20-20Z"/><circle class="cls-1" cx="357" cy="44" r="19.5"/><path class="cls-1" d="M357,25a19,19,0,1,1-19,19,19,19,0,0,1,19-19m0-1a20,20,0,1,0,20,20,20,20,0,0,0-20-20Z"/><path class="cls-2" d="M19.5,43.5c64.5-56.23,101.5-57.1,167,0"/><path class="cls-2" d="M187.5,43.5c64.5,53.58,101.5,54.41,167,0"/></g></g></svg>